<svg xmlns="http://www.w3.org/2000/svg" width="480" height="360" viewBox="0 0 480 360"><rect width="480" height="360" rx="0" fill="#DE2910"/><polygon points="150.00,70.00 174.70,146.01 254.62,146.01 189.96,192.98 214.66,268.99 150.00,222.02 85.34,268.99 110.04,192.98 45.38,146.01 125.30,146.01" fill="#FFDE00"/><polygon points="300.99,87.73 317.05,68.97 304.17,47.89 326.98,57.37 343.05,38.60 341.08,63.23 363.89,72.71 339.87,78.45 337.90,103.07 325.01,81.99" fill="#FFDE00"/><polygon points="366.43,145.37 388.42,134.12 384.52,109.73 402.01,127.17 424.00,115.92 412.82,137.95 430.32,155.39 405.91,151.56 394.73,173.59 390.83,149.20" fill="#FFDE00"/><polygon points="366.66,223.33 391.19,220.45 396.04,196.23 406.36,218.67 430.89,215.80 412.74,232.55 423.05,254.99 401.51,242.90 383.36,259.65 388.20,235.43" fill="#FFDE00"/><polygon points="301.71,281.14 325.49,287.82 339.19,267.27 340.19,291.95 363.97,298.63 340.81,307.20 341.80,331.89 326.49,312.50 303.32,321.08 317.02,300.52" fill="#FFDE00"/></svg>